<svg xmlns="http://www.w3.org/2000/svg" viewBox="0 0 239 566"><g style="isolation:isolate"><g id="a346aad4-8100-4c41-8c6d-8def78ec622a" data-name="Camada 1"><path d="M103.5,311h31a0,0,0,0,1,0,0V550.5A15.5,15.5,0,0,1,119,566h0a15.5,15.5,0,0,1-15.5-15.5V311A0,0,0,0,1,103.5,311Z" fill="#f9d778"/><path d="M237.5,119.5V349.4a7.6,7.6,0,0,1-7.6,7.6H8.1a7.6,7.6,0,0,1-7.6-7.6V119.5A117.8,117.8,0,0,1,9.3,74.6,132.4,132.4,0,0,1,36.4,35.8l.8-.8A116.7,116.7,0,0,1,60,16.7h.2A114.9,114.9,0,0,1,91.5,4.2l1.8-.4a109.6,109.6,0,0,1,19.2-2.6h9.7A118.5,118.5,0,0,1,237.5,119.5Z" fill="#824720" fill-rule="evenodd"/><path d="M236,122.5v79a8.4,8.4,0,0,1-1.6,4.9h0a8.3,8.3,0,0,1-6.9,3.6,3.1,3.1,0,0,1-3-3A17.4,17.4,0,0,0,207,189.5h-.7a12.6,12.6,0,0,0-8,2.8h0a13,13,0,0,0-4.8,10,7.8,7.8,0,0,1-1.3,4.3h0l-1,1.1a7.8,7.8,0,0,1-5.4,2.2,6.4,6.4,0,0,1-4.5-1.9,6.3,6.3,0,0,1-1.8-4.4V191.5A15,15,0,0,0,155,179.9h-.1l-1,.9a15.1,15.1,0,0,0-4.4,10.6V199a10.5,10.5,0,0,1-2.3,6.7h0a10.9,10.9,0,0,1-8.7,4.3h0a11,11,0,0,1-11-11,9.6,9.6,0,0,0-9.5-9.5l-1.3-.2a4.7,4.7,0,0,0-2.8.9,8.2,8.2,0,0,0-3.4,6.8v.5c-1.1,0-2,94-2,94a17.3,17.3,0,0,1-4.3,11.2h0a23.9,23.9,0,0,1-17.7,7.8,20.1,20.1,0,0,1-20-20V223a13,13,0,0,0-13-13,12.7,12.7,0,0,0-8.1,2.9h-.1l-1,.9a13.3,13.3,0,0,0-3.8,9.2v22a13.3,13.3,0,0,1-3,8.5h0a13.4,13.4,0,0,1-10.5,5,13.1,13.1,0,0,1-9.5-4,13.1,13.1,0,0,1-4-9.5V215.4A5.4,5.4,0,0,0,8.1,210a8.8,8.8,0,0,1-6.4-2.7,5.3,5.3,0,0,1-1.2-1.4V120.5A117.8,117.8,0,0,1,9.3,75.6,132.4,132.4,0,0,1,36.4,36.8l.8-.8C49.4,24.1,63.8,14.9,79.1,10c47.4-14.9,92.6-.9,122.2,28.7A118.3,118.3,0,0,1,236,122.5Z" fill="#5b2b10" fill-rule="evenodd" opacity="0.5" style="mix-blend-mode:soft-light"/><path d="M238,119.5v79a9.3,9.3,0,0,1-.5,2.9,8.7,8.7,0,0,1-3.1,4h0a8.4,8.4,0,0,1-4.9,1.6,3.1,3.1,0,0,1-3-3A17.4,17.4,0,0,0,209,186.5h-.7a13,13,0,0,0-10,4.8h0a12.6,12.6,0,0,0-2.8,8,7.9,7.9,0,0,1-2.3,5.5,3.9,3.9,0,0,1-1,.8h0a8.4,8.4,0,0,1-4.4,1.3,6.4,6.4,0,0,1-4.5-1.9,6.3,6.3,0,0,1-1.8-4.4V188.5a15,15,0,0,0-25.6-10.6l-.9,1h-.1a14.9,14.9,0,0,0-3.4,9.5V196a11,11,0,0,1-4.3,8.7h0a11.1,11.1,0,0,1-6.7,2.3h0a11,11,0,0,1-11-11,9.6,9.6,0,0,0-9.5-9.5l-1.3-.2a5.8,5.8,0,0,0-4.8,2.9,8.7,8.7,0,0,0-1.4,4.8v.5c-1.1,0-2,94-2,94a17.6,17.6,0,0,1-6.3,13.2h0a24.5,24.5,0,0,1-15.7,5.8,20.1,20.1,0,0,1-20-20V220a13,13,0,0,0-13-13,13.3,13.3,0,0,0-9.2,3.8l-.9,1.1h-.1a13.2,13.2,0,0,0-2.8,8.1v22a13.7,13.7,0,0,1-5,10.5h0a13.3,13.3,0,0,1-8.5,3,13.1,13.1,0,0,1-9.5-4,13.1,13.1,0,0,1-4-9.5V212.4a5.4,5.4,0,0,0-5.4-5.4,8.8,8.8,0,0,1-6.4-2.7A8.8,8.8,0,0,1,1,197.9V117.3c0-29,14-59.4,35.4-81.5l.8-.8A116.7,116.7,0,0,1,60,16.7h.2A95.9,95.9,0,0,1,81.1,7c3.5-1.1,7-2,10.4-2.8l1.8-.4a129.9,129.9,0,0,1,19.2-2.6h9.7A118.5,118.5,0,0,1,238,119.5Z" fill="#f4319c" stroke="#f4319c" stroke-miterlimit="10" stroke-width="2" fill-rule="evenodd"/><path d="M224.5,112.5c0-53.1-50.8-100-105-100" fill="none" stroke="#f7f7f7" stroke-linecap="round" stroke-linejoin="round" stroke-width="10"/><line x1="225.5" y1="131.5" x2="225.5" y2="147.5" fill="none" stroke="#f7f7f7" stroke-linecap="round" stroke-linejoin="round" stroke-width="10"/><path d="M236,196c0,4.4-2.7,8-6,8" fill="none" stroke="#f7f7f7" stroke-linecap="round" stroke-linejoin="round"/><path d="M194.1,198.1c.8,2.6-1.5,5.7-5.2,6.8" fill="none" stroke="#f7f7f7" stroke-linecap="round" stroke-linejoin="round"/><path d="M149,194c0,5.5-2.7,10-6,10" fill="none" stroke="#f7f7f7" stroke-linecap="round" stroke-linejoin="round"/><path d="M107,289c0,8.3-9.4,15-21,15" fill="none" stroke="#f7f7f7" stroke-linecap="round" stroke-linejoin="round" stroke-width="3"/><path d="M38,246c0,3.9-4.9,7-11,7" fill="none" stroke="#f7f7f7" stroke-linecap="round" stroke-linejoin="round"/><line x1="111.5" y1="368" x2="111.5" y2="506.5" fill="none" stroke="#c9aa65" stroke-linecap="round" stroke-miterlimit="10" stroke-width="3" stroke-dasharray="12 20 10 5 12 15" opacity="0.5"/><line x1="129.5" y1="400.5" x2="129.5" y2="545.5" fill="none" stroke="#c9aa65" stroke-linecap="round" stroke-miterlimit="10" stroke-width="2" stroke-dasharray="5 20 10 3 5 10" opacity="0.5"/><rect x="159.5" y="313.5" width="21" height="59.5" rx="10.5" fill="#824720"/><rect x="186.5" y="318.5" width="25" height="64" rx="12.5" fill="#824720"/><path d="M208.5,368.5c0,4.4-1.9,10-9,10" fill="none" stroke="#f4f4f4" stroke-linecap="round" stroke-linejoin="round" stroke-width="2"/><path d="M161.5,361.5c0,7.1,4.6,9,9,9" fill="none" stroke="#602a0c" stroke-linecap="round" stroke-miterlimit="10"/><line x1="230.5" y1="224.5" x2="230.5" y2="303.5" fill="none" stroke="#f4f4f4" stroke-linecap="round" stroke-linejoin="round" stroke-width="4" opacity="0.75"/><line x1="230.5" y1="316.5" x2="230.5" y2="333.5" fill="none" stroke="#f4f4f4" stroke-linecap="round" stroke-linejoin="round" stroke-width="4" opacity="0.7"/><line x1="5.5" y1="290.5" x2="5.5" y2="345.5" fill="none" stroke="#5b2f17" stroke-linecap="round" stroke-linejoin="round" stroke-width="2" opacity="0.5"/><path d="M5.5,348.5c0,3,3,5,7,5" fill="none" stroke="#5b2f17" stroke-linecap="round" stroke-linejoin="round" stroke-width="2" opacity="0.5"/><line x1="16.5" y1="353.5" x2="30.5" y2="353.5" fill="none" stroke="#5b2f17" stroke-linecap="round" stroke-linejoin="round" stroke-width="2" opacity="0.5"/></g></g></svg>